<svg width="100" height="100" viewBox="0 0 100 100" fill="none" xmlns="http://www.w3.org/2000/svg">
<mask id="mask0" mask-type="alpha" maskUnits="userSpaceOnUse" x="0" y="0" width="100" height="100">
<path d="M76.1719 0C90.625 0 100 9.375 100 23.8281V76.1719C100 90.625 90.625 100 76.1719 100H23.8281C9.375 100 0 90.625 0 76.1719V23.8281C0 9.375 9.375 0 23.8281 0H76.1719Z" fill="white"/>
</mask>
<g mask="url(#mask0)">
<g filter="url(#filter0_d)">
<path d="M100 0H0V100H100V0Z" fill="#E33C3C"/>
</g>
<path d="M86.0796 56.6918C86.0796 56.2066 85.6863 55.8132 85.201 55.8132C84.7158 55.8132 84.3225 56.2066 84.3225 56.6918V62.842C84.3225 63.3272 84.7158 63.7206 85.201 63.7206C85.6863 63.7206 86.0796 63.3272 86.0796 62.842V56.6918Z" fill="white"/>
<path d="M40.3929 56.6918C40.3929 56.2066 39.9996 55.8132 39.5144 55.8132C39.0291 55.8132 38.6358 56.2066 38.6358 56.6918V62.842C38.6358 63.3272 39.0291 63.7206 39.5144 63.7206C39.9996 63.7206 40.3929 63.3272 40.3929 62.842V56.6918Z" fill="white"/>
<path fill-rule="evenodd" clip-rule="evenodd" d="M84.1902 62.842H86.0796C87.5353 62.842 88.7154 65.9888 88.7154 69.8707C88.7154 73.7525 87.5353 76.8994 86.0796 76.8994H84.511C82.0233 85.3016 73.0501 90.5176 62.3577 90.5176C51.6653 90.5176 42.6887 85.3016 40.1999 76.8994H38.6358C37.1801 76.8994 36 73.7525 36 69.8707C36 65.9888 37.1801 62.842 38.6358 62.842H40.5223C43.395 53.8061 52.083 47.4373 62.356 47.4373C72.629 47.4373 81.3193 53.8061 84.1902 62.842ZM62.3577 86.5639C73.0328 86.5639 81.6867 79.3916 81.6867 71.6279C81.6867 63.8642 73.0328 57.5704 62.3577 57.5704C51.6826 57.5704 43.0287 63.8642 43.0287 71.6279C43.0287 79.3916 51.6826 86.5639 62.3577 86.5639Z" fill="white"/>
<path d="M86.0796 53.1775C86.0796 52.6922 85.6863 52.2989 85.201 52.2989C84.7158 52.2989 84.3225 52.6922 84.3225 53.1775V54.0561C84.3225 54.5413 84.7158 54.9346 85.201 54.9346C85.6863 54.9346 86.0796 54.5413 86.0796 54.0561V53.1775Z" fill="white"/>
<path d="M86.0796 49.6631C86.0796 49.1779 85.6863 48.7845 85.201 48.7845C84.7158 48.7845 84.3225 49.1779 84.3225 49.6631V50.5417C84.3225 51.0269 84.7158 51.4203 85.201 51.4203C85.6863 51.4203 86.0796 51.0269 86.0796 50.5417V49.6631Z" fill="white"/>
<path d="M40.3929 53.1775C40.3929 52.6922 39.9996 52.2989 39.5144 52.2989C39.0291 52.2989 38.6358 52.6922 38.6358 53.1775V54.0561C38.6358 54.5413 39.0291 54.9346 39.5144 54.9346C39.9996 54.9346 40.3929 54.5413 40.3929 54.0561V53.1775Z" fill="white"/>
<path d="M40.3929 49.6631C40.3929 49.1779 39.9996 48.7845 39.5144 48.7845C39.0291 48.7845 38.6358 49.1779 38.6358 49.6631V50.5417C38.6358 51.0269 39.0291 51.4203 39.5144 51.4203C39.9996 51.4203 40.3929 51.0269 40.3929 50.5417V49.6631Z" fill="white"/>
<path d="M62.3577 52.7382C63.8134 52.7382 64.9935 52.1481 64.9935 51.4203C64.9935 50.6924 63.8134 50.1024 62.3577 50.1024C60.902 50.1024 59.7219 50.6924 59.7219 51.4203C59.7219 52.1481 60.902 52.7382 62.3577 52.7382Z" fill="#E33C3C"/>
<path d="M64.1045 51.2854L63.2363 39.9986H61.4791L60.6109 51.2853C60.6043 51.3707 60.6478 51.4521 60.7223 51.4941C61.1546 51.7378 61.6997 51.8596 62.3577 51.8596C63.0157 51.8596 63.5608 51.7378 63.9931 51.4941L63.9931 51.4941C64.0676 51.4521 64.1111 51.3707 64.1045 51.2854Z" fill="white"/>
<path d="M62.3577 44.0987C65.1235 44.0987 67.3657 41.8566 67.3657 39.0907C67.3657 36.3249 65.1235 34.0828 62.3577 34.0828C59.5919 34.0828 57.3497 36.3249 57.3497 39.0907C57.3497 41.8566 59.5919 44.0987 62.3577 44.0987Z" fill="white"/>
<path fill-rule="evenodd" clip-rule="evenodd" d="M62.3577 86.5639C73.0328 86.5639 81.6867 79.3916 81.6867 71.6279C81.6867 63.8642 73.0328 57.5704 62.3577 57.5704C51.6826 57.5704 43.0287 63.8642 43.0287 71.6279C43.0287 79.3916 51.6826 86.5639 62.3577 86.5639Z" fill="white" stroke="#E33C3C" stroke-width="1.8"/>
<path fill-rule="evenodd" clip-rule="evenodd" d="M58.0794 75.1548C57.2787 73.8378 55.8302 72.9581 54.1762 72.9581H53.2896C51.6356 72.9581 50.1871 73.8378 49.3864 75.1548C48.9655 74.4216 48.7249 73.5717 48.7249 72.6657V71.3643C48.7249 68.5985 50.9671 66.3563 53.7329 66.3563C56.4987 66.3563 58.7409 68.5985 58.7409 71.3643V72.6657C58.7409 73.5717 58.5002 74.4216 58.0794 75.1548Z" fill="#E33C3C"/>
<path fill-rule="evenodd" clip-rule="evenodd" d="M75.3455 75.2605C74.5482 73.9284 73.0912 73.0365 71.4258 73.0365H70.5392C68.8739 73.0365 67.4168 73.9284 66.6196 75.2605C66.2089 74.5338 65.9746 73.6943 65.9746 72.8001V71.3643C65.9746 68.5985 68.2167 66.3563 70.9825 66.3563C73.7484 66.3563 75.9905 68.5985 75.9905 71.3643V72.8001C75.9905 73.6943 75.7561 74.5338 75.3455 75.2605Z" fill="#E33C3C"/>
</g>
<defs>
<filter id="filter0_d" x="-16" y="-16" width="140" height="140" filterUnits="userSpaceOnUse" color-interpolation-filters="sRGB">
<feFlood flood-opacity="0" result="BackgroundImageFix"/>
<feColorMatrix in="SourceAlpha" type="matrix" values="0 0 0 0 0 0 0 0 0 0 0 0 0 0 0 0 0 0 127 0"/>
<feOffset dx="4" dy="4"/>
<feGaussianBlur stdDeviation="10"/>
<feColorMatrix type="matrix" values="0 0 0 0 0 0 0 0 0 0 0 0 0 0 0 0 0 0 1 0"/>
<feBlend mode="normal" in2="BackgroundImageFix" result="effect1_dropShadow"/>
<feBlend mode="normal" in="SourceGraphic" in2="effect1_dropShadow" result="shape"/>
</filter>
</defs>
</svg>
